# xmcd CD database file
#
# Track frame offsets:
#	150
#	17874
#	38818
#	54097
#	70245
#	85380
#	113376
#	138745
#	156970
#	174989
#
# Disc length: 2576 seconds
#
# Revision: 0
# Processed by: cddbd v1.5.1PL0 Copyright (c) Steve Scherf et al.
# Submitted via: CDex 1.51
#
DISCID=7b0a0e0a
DTITLE=ORCA FANG - SHOUT!!
DYEAR=2003
DGENRE=Rock
TTITLE0=SHOUT!!
TTITLE1=Never Forget
TTITLE2=Girl
TTITLE3=Summer Days
TTITLE4=Fool
TTITLE5=if…
TTITLE6=Glory Days
TTITLE7=Russian Roulette
TTITLE8=Sacred Place
TTITLE9=a-buse
EXTD=YEAR: 2003
EXTT0=
EXTT1=
EXTT2=
EXTT3=
EXTT4=
EXTT5=
EXTT6=
EXTT7=
EXTT8=
EXTT9=
PLAYORDER=
